<svg xmlns="http://www.w3.org/2000/svg" viewBox="0 0 334.84 226.11"><defs><style>.cls-1{fill:#fff;}</style></defs><g id="Layer_2" data-name="Layer 2"><g id="Layer_1-2" data-name="Layer 1"><path class="cls-1" d="M62.44,0V44.51a25.77,25.77,0,0,0-10.3-8.9,33,33,0,0,0-15-3.31,35.69,35.69,0,0,0-19.07,5.22,35,35,0,0,0-13.23,14,31.34,31.34,0,0,0-2.67,6.36L20.09,75.92a21.38,21.38,0,0,1-.38-4.07c0-6.61,2-11.95,6.11-16.15s9.28-6.23,15.51-6.23,11.45,2,15.39,6.36,6.1,9.54,6.1,16.15-2,12.08-6.1,16.28a20.35,20.35,0,0,1-15.39,6.36,20.8,20.8,0,0,1-15.51-6.36,21.9,21.9,0,0,1-5.73-12.34H0A41.17,41.17,0,0,0,4.83,92.33a37.54,37.54,0,0,0,13.23,14.24,35.69,35.69,0,0,0,19.07,5.09q9.73,0,15.65-3.82a34.2,34.2,0,0,0,9.66-8.77l2.16,10.81H82V0Z"/><path class="cls-1" d="M148.54,74.52A24,24,0,0,0,138,68,124.89,124.89,0,0,0,123.36,64a71.76,71.76,0,0,1-11.7-3.69c-2.93-1.27-4.45-3.05-4.45-5.34a6.43,6.43,0,0,1,2.92-5.34c2-1.4,4.83-2.17,8.52-2.17,7.38,0,11.57,2.8,12.72,8.4h18.44c-1-7.25-4.2-13.1-9.54-17.17s-12.46-6.36-21.49-6.36q-14.5,0-22.51,6.87a21.62,21.62,0,0,0-8,17,15.31,15.31,0,0,0,2.67,9.16,18.4,18.4,0,0,0,6.74,6.1A41.14,41.14,0,0,0,107,75.41,95.08,95.08,0,0,0,116.87,78a76.85,76.85,0,0,1,11.83,3.43A6.67,6.67,0,0,1,133,88,7.54,7.54,0,0,1,130,94c-1.91,1.78-5.09,2.67-9.41,2.67a17.2,17.2,0,0,1-10.43-3.18,12.74,12.74,0,0,1-5-7.5H85.59a25,25,0,0,0,5.46,13.35,31.12,31.12,0,0,0,12.21,9.16,44.82,44.82,0,0,0,17.68,3.18,41,41,0,0,0,16.91-3.18,26.64,26.64,0,0,0,11.07-8.78A22.13,22.13,0,0,0,152.48,87C152.48,81.64,151.21,77.45,148.54,74.52Z"/><path class="cls-1" d="M230.18,34.21H201.44a35,35,0,0,0-11.83-1.91A35.4,35.4,0,0,0,173,36a25.63,25.63,0,0,0-10.55,9.92,26.07,26.07,0,0,0-3.82,13.86c0,8.14,2.93,14.88,8.9,20.09l-13.22,14v3.56a33.7,33.7,0,0,0,3.81,3.18,47.75,47.75,0,0,0,5.22,2.93c-6.62,5-9.79,10.81-9.79,17.67,0,8,3.17,14,9.79,18.06s15.39,6,26.2,6c7.88,0,14.36-1.15,19.45-3.69s8.9-5.72,11.32-9.79A24.17,24.17,0,0,0,224,119q0-10.29-6.87-16c-4.58-3.82-12-6.23-22-7.12A139.42,139.42,0,0,1,180.71,94a30.23,30.23,0,0,1-7-2.29l5.72-5.6a41.81,41.81,0,0,0,10.17,1.15A35.17,35.17,0,0,0,206,83.68a27.34,27.34,0,0,0,10.55-9.92,26.42,26.42,0,0,0,3.69-14,26.91,26.91,0,0,0-3-12.72l13-1Zm-50.61,73.63a97.51,97.51,0,0,0,11.57,1.4q8.78.57,11.83,3.43a9,9,0,0,1,2.92,6.87,9.25,9.25,0,0,1-4.58,8,22,22,0,0,1-11.82,2.93,27.15,27.15,0,0,1-13-2.8,9.22,9.22,0,0,1-5.21-8.52,11.06,11.06,0,0,1,1.91-6A17.08,17.08,0,0,1,179.57,107.84ZM199.4,69.18a15.29,15.29,0,0,1-9.79,3.18,15.53,15.53,0,0,1-10-3.18q-3.82-3.24-3.82-9.16,0-6.1,3.82-9.15a14.93,14.93,0,0,1,10-3.31,14.71,14.71,0,0,1,9.79,3.31c2.68,2,3.95,5.08,3.95,9.15S202.08,67,199.4,69.18Z"/><path class="cls-1" d="M286.77,77.7v32.18h19.58V77.7Zm19.08-19Q304.32,47.7,298.6,41.2c-5.22-5.85-12.46-8.9-21.88-8.9a29.86,29.86,0,0,0-15.64,4.07,25.68,25.68,0,0,0-10.17,10.68l-1.53-12.84H232.21v75.67h19.46v-39c0-7,1.78-12.33,5.34-16.15a17.1,17.1,0,0,1,13.48-5.85c5.6,0,9.67,1.78,12.34,5.22s3.94,8.39,3.94,14.88V77.7Z"/><path class="cls-1" d="M329.88,91.31a12.91,12.91,0,0,0-17.55,0,10.85,10.85,0,0,0-3.43,8.14,11.05,11.05,0,0,0,3.43,8.14,13.32,13.32,0,0,0,17.55,0,11.06,11.06,0,0,0,3.44-8.14A10.86,10.86,0,0,0,329.88,91.31Z"/><path class="cls-1" d="M49.85,168.12V151.84H29.38V128.32H9.79v20.34l19.59,19.46H49.85Zm-40.06,0v29.76q0,14.88,7.25,20.6c4.71,3.94,11.07,5.85,19.08,5.85H49.34V207.67H39.93c-3.94,0-6.61-.64-8.14-2s-2.41-3.95-2.41-7.51v-30Z"/><path class="cls-1" d="M122.34,165.07A33.69,33.69,0,0,0,109,151.72a38,38,0,0,0-19.59-5A40.17,40.17,0,0,0,68.67,152a35.28,35.28,0,0,0-13.73,14.24,43.19,43.19,0,0,0-5,20.86c0,7.76,1.65,14.62,5.09,20.47a35.09,35.09,0,0,0,13.86,13.74c5.85,3.3,12.59,4.83,20.22,4.83a37.8,37.8,0,0,0,16.4-3.31,35.52,35.52,0,0,0,12.21-9.28,35.1,35.1,0,0,0,7.12-13H105a16.32,16.32,0,0,1-6,6.87,17.94,17.94,0,0,1-10,2.67,19.66,19.66,0,0,1-13.48-5c-3.69-3.44-5.72-8-6.23-13.86h57.61c.12-1.4.12-2.68.25-3.82v-3.56A36.36,36.36,0,0,0,122.34,165.07Zm-52.65,14c1-5.6,3.31-9.67,7-12.34a21.11,21.11,0,0,1,12.72-4.07,18.24,18.24,0,0,1,12.46,4.45,16.33,16.33,0,0,1,5.47,12Z"/><path class="cls-1" d="M201.44,165.07a33.69,33.69,0,0,0-13.35-13.35,38.46,38.46,0,0,0-19.72-5,40,40,0,0,0-20.6,5.21A34.52,34.52,0,0,0,134,166.21a43.19,43.19,0,0,0-5,20.86,41,41,0,0,0,5,20.47,36.85,36.85,0,0,0,13.86,13.74,41.23,41.23,0,0,0,20.35,4.83,37.8,37.8,0,0,0,16.4-3.31,35.42,35.42,0,0,0,12.21-9.28,36.91,36.91,0,0,0,7.12-13H184.14a17,17,0,0,1-16,9.54,19.43,19.43,0,0,1-13.48-5c-3.82-3.44-5.85-8-6.23-13.86h57.48c.13-1.4.25-2.68.25-3.82s.13-2.42.13-3.56A37.66,37.66,0,0,0,201.44,165.07Zm-52.78,14c1-5.6,3.44-9.67,7.12-12.34a20.74,20.74,0,0,1,12.59-4.07A18.82,18.82,0,0,1,181,167.1c3.31,2.93,5.09,6.87,5.47,12Z"/><path class="cls-1" d="M334.33,173.21c-1-7.38-3.43-13.23-7.37-17.55-5.34-5.85-12.85-8.9-22.77-8.9a32.14,32.14,0,0,0-15.13,3.68A28,28,0,0,0,278,160.36c-5-9-13.23-13.6-24.93-13.6a29.18,29.18,0,0,0-14,3.3,26.69,26.69,0,0,0-9.66,8.78l-1.66-10.18H210.47v75.67h19.58v-39c0-7,1.53-12.34,4.83-16.15a15.34,15.34,0,0,1,12.6-5.85c5.21,0,9.15,1.78,11.69,5.21s3.82,8.39,3.82,14.88v41h19.58v-39c0-7,1.53-12.34,4.71-16.15a15.82,15.82,0,0,1,12.84-5.85c5.09,0,9,1.78,11.45,5.21s3.81,8.39,3.81,14.88v8.78Zm-18.95,18.95v32.17h19.46V192.16Z"/></g></g></svg>