<svg width="297" height="120" viewBox="0 0 297 120" fill="none" xmlns="http://www.w3.org/2000/svg">
<g clip-path="url(#clip0_383_14)">
<path d="M296.999 30.6394V35.9329H289.83V54.3254H284.273V35.9329H277.104V30.6394H297.044H296.999ZM226.245 48.7179C225.124 46.8338 224.542 44.7254 224.542 42.4824C224.542 40.2394 225.124 38.131 226.245 36.2469C227.365 34.3628 228.888 32.8824 230.815 31.7609C232.742 30.6843 234.893 30.1011 237.223 30.1011C239.553 30.1011 241.704 30.6394 243.631 31.7609C245.558 32.8375 247.081 34.3628 248.201 36.2469C249.322 38.131 249.904 40.2394 249.904 42.4824C249.904 44.7254 249.322 46.8338 248.201 48.7179C247.081 50.602 245.558 52.0824 243.631 53.2039C241.704 54.2805 239.553 54.8637 237.223 54.8637C234.893 54.8637 232.742 54.3254 230.815 53.2039C228.888 52.1272 227.365 50.602 226.245 48.7179ZM230.188 42.4824C230.188 43.7833 230.501 44.9497 231.129 46.0263C231.756 47.1029 232.608 47.9553 233.683 48.5833C234.758 49.2114 235.968 49.5254 237.268 49.5254C238.567 49.5254 239.777 49.2114 240.853 48.5833C241.928 47.9553 242.779 47.1029 243.407 46.0263C244.034 44.9497 244.348 43.7833 244.348 42.4824C244.348 41.1814 244.034 40.0151 243.407 38.9385C242.779 37.8618 241.928 37.0095 240.853 36.3814C239.777 35.7534 238.567 35.4394 237.268 35.4394C235.968 35.4394 234.758 35.7534 233.683 36.3814C232.608 37.0095 231.756 37.8618 231.129 38.9385C230.501 40.0151 230.188 41.1814 230.188 42.4824ZM218.806 86.8936H224.363V63.2525H218.806V86.8936ZM242.152 63.2525L251.428 86.8936H245.513L244.034 82.9459H233.817L232.339 86.8936H226.424L235.744 63.2525H242.152ZM242.062 77.6525L238.971 69.488L235.879 77.6525H242.107H242.062ZM269.531 44.3216C269.531 45.3086 269.307 46.1609 268.859 46.9684C268.411 47.7758 267.783 48.4039 266.977 48.8525C266.17 49.3011 265.274 49.5254 264.333 49.5254C263.392 49.5254 262.496 49.3011 261.689 48.8525C260.883 48.4039 260.255 47.7758 259.807 46.9684C259.359 46.1609 259.135 45.2637 259.135 44.3216V30.6394H253.534V44.1422C253.534 46.116 254.027 47.9104 254.968 49.5254C255.909 51.1403 257.208 52.4413 258.866 53.3833C260.524 54.3254 262.361 54.8188 264.333 54.8188C266.305 54.8188 268.187 54.3254 269.8 53.3833C271.458 52.4413 272.757 51.1403 273.698 49.5254C274.639 47.9104 275.132 46.116 275.132 44.1422V30.6394H269.531V44.3216ZM152.532 79.8506L146.393 63.2076H138.776V86.8487H144.332V72.2693L150.023 86.8487H155.176L160.867 72.1796V86.8487H166.423V63.2076H158.806L152.622 79.8506H152.532ZM143.346 54.3254H148.903V35.9329H156.072V30.6394H136.132V35.9329H143.301V54.3254H143.346ZM154.056 54.3254L163.376 30.6843H169.784L179.06 54.3254H173.145L171.666 50.3777H161.449L159.971 54.3254H154.056ZM163.466 45.0843H169.694L166.603 36.9198L163.511 45.0843H163.466ZM176.73 77.2936H187.887V72.1347H176.73V68.3665H188.291V63.2076H171.218V86.8487H188.559V81.4207H176.73V77.2487V77.2936ZM186.677 42.5272H186.901L196.087 54.3254H202.854L192.906 41.4955L202.137 30.6394H195.46L186.767 40.7328V30.6394H181.211V54.2805H186.767V42.4824L186.677 42.5272ZM213.653 69.0843C214.728 70.8786 215.266 72.8973 215.266 75.0955C215.266 77.2936 214.728 79.2674 213.653 81.0618C212.578 82.8562 211.099 84.2917 209.262 85.3684C207.424 86.4001 205.363 86.9385 203.167 86.9385H192.144V63.2973H203.033C205.274 63.2973 207.29 63.8357 209.172 64.8674C211.054 65.8992 212.533 67.3347 213.608 69.1291L213.653 69.0843ZM209.71 75.0506C209.71 73.8394 209.441 72.7179 208.858 71.731C208.276 70.7441 207.514 69.9366 206.483 69.3534C205.498 68.7702 204.377 68.5011 203.167 68.5011H197.745V81.6001H203.167C204.377 81.6001 205.498 81.331 206.483 80.7478C207.469 80.1646 208.276 79.402 208.858 78.3702C209.441 77.3833 209.71 76.2618 209.71 75.0506ZM222.301 48.8973H210.471V44.7254H221.629V39.5665H210.471V35.7983H222.032V30.6394H204.96V54.2805H222.301V48.8525V48.8973Z" fill="#E0663D"/>
<path d="M102.346 17.585C91.0537 6.23551 75.9528 0 59.9556 0C43.9585 0 28.8576 6.23551 17.5655 17.585C6.22858 28.8897 0 44.0075 0 60.0224C0 76.0374 6.22858 91.1103 17.5655 102.46C28.8576 113.809 43.9585 120.045 59.9556 120.045C75.9528 120.045 91.0089 113.809 102.346 102.46C113.683 91.1551 119.911 76.0374 119.911 60.0224C119.911 44.0075 113.683 28.9346 102.346 17.585ZM55.0714 110.669L52.6068 91.8729L58.0736 91.1551L56.8189 110.804C56.2364 110.804 55.6539 110.714 55.0714 110.669ZM82.271 82.9009L75.6391 83.7533L72.6816 102.236L65.1088 85.0991L58.4769 85.9514L39.1638 88.4635L39.836 93.5327L47.0952 92.5906L49.3357 109.727C39.8808 107.708 31.1877 102.998 24.1525 95.9551C14.5632 86.3551 9.27565 73.5701 9.27565 60.0224C9.27565 46.4748 14.5632 33.6897 24.1525 24.0897C33.7419 14.4897 46.5127 9.19626 60.0453 9.19626C73.6227 9.19626 86.3487 14.4897 95.938 24.0897C105.527 33.6897 110.815 46.4748 110.815 60.0224C110.815 73.5701 105.527 86.3551 95.938 95.9551C93.6527 98.243 91.2329 100.262 88.634 102.011L82.3158 82.8112L82.271 82.9009ZM83.3464 105.286C81.1507 106.407 78.9102 107.394 76.5801 108.202L79.0895 91.3346L83.3464 105.286ZM70.71 109.817C68.1558 110.355 65.5569 110.714 62.9579 110.849L63.6749 93.3084L70.71 109.817Z" fill="#E0663D"/>
</g>
<defs>
<clipPath id="clip0_383_14">
<rect width="297" height="120" fill="white"/>
</clipPath>
</defs>
</svg>
