<svg width="248" height="164" viewBox="0 0 248 164" fill="none" xmlns="http://www.w3.org/2000/svg">
<g clip-path="url(#clip0_505_12)">
<path d="M166.19 9.26004C175.946 9.2586 185.603 11.226 194.581 15.0443C203.559 18.8627 211.674 24.4535 218.441 31.4821C225.207 38.5107 230.486 46.8324 233.96 55.9491C237.435 65.0657 239.034 74.7898 238.662 84.539C237.238 122.747 205.671 153.639 167.442 154.281C167.024 154.288 166.607 154.292 166.19 154.292C148.117 154.316 130.691 147.566 117.351 135.373C113.404 131.748 108.245 129.727 102.885 129.708C99.4818 129.706 96.1307 130.544 93.129 132.148C85.6051 136.153 77.2796 138.422 68.7641 138.787C60.2485 139.152 51.7592 137.605 43.92 134.26C36.0807 130.914 29.0906 125.854 23.4631 119.453C17.8357 113.051 13.7139 105.47 11.4006 97.2667C9.08727 89.0633 8.64119 80.4457 10.0951 72.0473C11.5491 63.6488 14.8661 55.6827 19.8025 48.7343C24.7389 41.7859 31.1692 36.0317 38.6211 31.8944C46.0731 27.7571 54.3572 25.3418 62.865 24.826C64.019 24.7594 65.166 24.726 66.306 24.726C75.838 24.7121 85.2203 27.0967 93.589 31.66C96.4537 33.2203 99.665 34.0346 102.927 34.028C108.168 34.0015 113.209 32.0096 117.053 28.446C130.429 16.0864 147.978 9.23395 166.19 9.26004ZM166.19 4.3876e-05C145.653 -0.0236074 125.864 7.70308 110.777 21.636C108.64 23.6178 105.842 24.7341 102.927 24.768C101.215 24.7764 99.5294 24.3504 98.027 23.53C88.2926 18.2381 77.3889 15.4656 66.309 15.465C64.988 15.465 63.647 15.504 62.324 15.582C52.4376 16.1824 42.8113 18.9898 34.152 23.798C25.4928 28.6061 18.0206 35.293 12.2842 43.3674C6.54789 51.4418 2.69313 60.6986 1.00308 70.4579C-0.686968 80.2173 -0.169384 90.2313 2.51782 99.7644C5.20502 109.297 9.99358 118.108 16.5318 125.548C23.07 132.987 31.1918 138.868 40.3006 142.758C49.4094 146.648 59.2739 148.448 69.1695 148.026C79.0651 147.604 88.7405 144.97 97.485 140.319C99.1451 139.428 101.001 138.964 102.885 138.968C105.937 138.984 108.871 140.142 111.112 142.214C126.16 155.959 145.81 163.571 166.191 163.551C166.658 163.551 167.127 163.547 167.599 163.539C183.521 163.267 199.017 158.352 212.185 149.398C225.353 140.443 235.621 127.839 241.727 113.132C247.833 98.4251 249.512 82.2553 246.559 66.6074C243.605 50.9594 236.147 36.5143 225.1 25.045C217.493 17.0926 208.348 10.7713 198.22 6.46563C188.092 2.16001 177.195 -0.0398168 166.19 4.3876e-05Z" fill="white"/>
<path d="M27.655 74.3322V68.4832H50.568V74.3322H42.568V95.0682H35.656V74.3322H27.655Z" fill="white"/>
<path d="M57.994 68.2932H62.924L72.946 78.7752L83.008 68.2932H87.9V95.0682H81.03V79.6112L72.948 87.5492L64.866 79.6112V95.0682H57.996L57.994 68.2932Z" fill="white"/>
<path d="M109.784 68.4832H116.7V89.1062H128.7V95.0682H109.784V68.4832Z" fill="white"/>
<path d="M145.337 68.3691H150.348L162.309 95.0691H155L153.222 91.0441H142.468L140.73 95.0691H133.417L145.337 68.3691ZM151.116 85.6881L147.842 78.1301L144.61 85.6881H151.116Z" fill="white"/>
<path d="M169.169 68.4832H180.685C185.777 68.4832 189.535 71.2172 189.535 75.5832C189.566 76.5579 189.362 77.5258 188.94 78.405C188.518 79.2841 187.89 80.0488 187.11 80.6342C188.509 81.09 189.726 81.9806 190.583 83.1762C191.441 84.3717 191.895 85.8099 191.878 87.2812C191.878 91.8382 188.078 95.0662 182.625 95.0662H169.169V68.4832ZM179.6 79.0412C181.661 79.0412 182.792 78.0162 182.792 76.4972C182.792 74.9782 181.661 73.9522 179.6 73.9522H175.963V79.0412H179.6ZM181.579 89.5611C183.802 89.5611 185.014 88.6502 185.014 86.9412C185.014 85.3082 183.721 84.3202 181.579 84.3202H175.963V89.5611H181.579Z" fill="white"/>
<path d="M203.832 86.2191C204.227 87.3201 204.959 88.2687 205.923 88.93C206.888 89.5913 208.037 89.9318 209.206 89.9031C211.631 89.9031 213.406 88.9921 213.406 87.0551C213.406 85.4981 212.072 84.6621 209.527 84.0161L206.374 83.1811C202.051 82.0041 199.545 79.5731 199.545 75.6231C199.545 70.9141 203.909 67.8751 209.122 67.8751C211.08 67.8514 213.011 68.3219 214.739 69.2431C216.357 70.0384 217.624 71.4045 218.295 73.0781L212.759 75.6231C212.457 74.9406 211.956 74.3652 211.322 73.9726C210.687 73.58 209.948 73.3884 209.203 73.4231C207.708 73.4231 206.456 74.1451 206.456 75.3981C206.456 76.6141 207.546 77.3351 209.486 77.8291L212.557 78.6291C217.406 79.8831 220.315 82.5031 220.315 86.7951C220.315 92.2261 215.184 95.6821 209.163 95.6821C206.704 95.708 204.28 95.0928 202.131 93.8971C200.162 92.8272 198.675 91.0486 197.969 88.9221L203.832 86.2191Z" fill="white"/>
</g>
<defs>
<clipPath id="clip0_505_12">
<rect width="247.974" height="163.551" fill="white"/>
</clipPath>
</defs>
</svg>
