<svg width="120" height="121" viewBox="0 0 120 121" fill="none" xmlns="http://www.w3.org/2000/svg">
<path d="M102.346 17.585C91.0537 6.23551 75.9528 0 59.9556 0C43.9585 0 28.8576 6.23551 17.5655 17.585C6.22858 28.8897 0 44.0075 0 60.0224C0 76.0374 6.22858 91.1103 17.5655 102.46C28.8576 113.809 43.9585 120.045 59.9556 120.045C75.9528 120.045 91.0089 113.809 102.346 102.46C113.683 91.1551 119.911 76.0374 119.911 60.0224C119.911 44.0075 113.683 28.9346 102.346 17.585ZM55.0714 110.669L52.6068 91.8729L58.0736 91.1551L56.8189 110.804C56.2364 110.804 55.6539 110.714 55.0714 110.669ZM82.271 82.9009L75.6391 83.7533L72.6816 102.236L65.1088 85.0991L58.4769 85.9514L39.1638 88.4635L39.836 93.5327L47.0952 92.5906L49.3357 109.727C39.8808 107.708 31.1877 102.998 24.1525 95.9551C14.5632 86.3551 9.27565 73.5701 9.27565 60.0224C9.27565 46.4748 14.5632 33.6897 24.1525 24.0897C33.7419 14.4897 46.5127 9.19626 60.0453 9.19626C73.6227 9.19626 86.3487 14.4897 95.938 24.0897C105.527 33.6897 110.815 46.4748 110.815 60.0224C110.815 73.5701 105.527 86.3551 95.938 95.9551C93.6527 98.243 91.2329 100.262 88.634 102.011L82.3158 82.8112L82.271 82.9009ZM83.3464 105.286C81.1507 106.407 78.9102 107.394 76.5801 108.202L79.0895 91.3346L83.3464 105.286ZM70.71 109.817C68.1558 110.355 65.5569 110.714 62.9579 110.849L63.6749 93.3084L70.71 109.817Z" fill="white"/>
</svg>
