<svg xmlns="http://www.w3.org/2000/svg" viewBox="0 0 281.3 189.96"><defs><style>.cls-1{fill:#28b1ba;}.cls-2{fill:#ef5425;}</style></defs><g id="Layer_2" data-name="Layer 2"><g id="Layer_1-2" data-name="Layer 1"><path class="cls-1" d="M52.46,0V37.39a21.82,21.82,0,0,0-8.66-7.48,27.8,27.8,0,0,0-12.6-2.77,30,30,0,0,0-16,4.38A29.42,29.42,0,0,0,4.06,43.27a25.54,25.54,0,0,0-2.24,5.34L16.88,63.78a18,18,0,0,1-.32-3.42c0-5.55,1.71-10,5.13-13.57a17.41,17.41,0,0,1,13-5.23c5.24,0,9.62,1.71,12.93,5.34s5.13,8,5.13,13.57-1.71,10.15-5.13,13.67a17.06,17.06,0,0,1-12.93,5.35,17.47,17.47,0,0,1-13-5.35,18.29,18.29,0,0,1-4.81-10.36H0A34.63,34.63,0,0,0,4.06,77.56a31.53,31.53,0,0,0,11.11,12,30,30,0,0,0,16,4.27q8.16,0,13.14-3.2a28.83,28.83,0,0,0,8.12-7.37l1.81,9.08H68.91V0Z"/><path class="cls-1" d="M124.79,62.61a20.15,20.15,0,0,0-8.87-5.45,106.45,106.45,0,0,0-12.29-3.42,59.82,59.82,0,0,1-9.83-3.1c-2.45-1.07-3.74-2.56-3.74-4.49a5.41,5.41,0,0,1,2.46-4.48,12.39,12.39,0,0,1,7.16-1.82c6.19,0,9.72,2.35,10.68,7h15.49c-.85-6.09-3.52-11-8-14.42s-10.47-5.34-18-5.34q-12.18,0-18.91,5.77a18.15,18.15,0,0,0-6.74,14.31,12.81,12.81,0,0,0,2.25,7.69A15.41,15.41,0,0,0,82.05,60a34.1,34.1,0,0,0,7.8,3.31,77.8,77.8,0,0,0,8.33,2.14,64.06,64.06,0,0,1,9.94,2.89,5.59,5.59,0,0,1,3.63,5.55,6.32,6.32,0,0,1-2.56,5c-1.61,1.5-4.28,2.25-7.91,2.25a14.48,14.48,0,0,1-8.76-2.68,10.69,10.69,0,0,1-4.17-6.3H71.9a21.09,21.09,0,0,0,4.59,11.22,26.08,26.08,0,0,0,10.26,7.69A37.57,37.57,0,0,0,101.6,93.8a34.36,34.36,0,0,0,14.21-2.67,22.35,22.35,0,0,0,9.3-7.37,18.64,18.64,0,0,0,3-10.68C128.1,68.59,127,65.06,124.79,62.61Z"/><path class="cls-1" d="M193.37,28.74H169.23a29.32,29.32,0,0,0-9.94-1.6,29.86,29.86,0,0,0-14,3.09,21.55,21.55,0,0,0-8.87,8.34,21.89,21.89,0,0,0-3.2,11.64,21.38,21.38,0,0,0,7.47,16.88L129.59,78.85v3a29.48,29.48,0,0,0,3.21,2.67A41.58,41.58,0,0,0,137.18,87c-5.56,4.16-8.23,9.08-8.23,14.85,0,6.73,2.67,11.75,8.23,15.17s12.93,5,22,5c6.62,0,12.07-1,16.34-3.1s7.48-4.81,9.51-8.23a20.31,20.31,0,0,0,3.1-10.68q0-8.66-5.77-13.46c-3.85-3.21-10-5.24-18.48-6A113.88,113.88,0,0,1,151.82,79,24.83,24.83,0,0,1,145.94,77l4.81-4.7a35.49,35.49,0,0,0,8.54,1,29.49,29.49,0,0,0,13.79-3A23.16,23.16,0,0,0,181.94,62,22.23,22.23,0,0,0,185,50.21a22.52,22.52,0,0,0-2.56-10.68l10.89-.86ZM150.85,90.6a84,84,0,0,0,9.73,1.17q7.36.48,9.93,2.89a7.59,7.59,0,0,1,2.46,5.77,7.78,7.78,0,0,1-3.85,6.73,18.48,18.48,0,0,1-9.93,2.45,22.72,22.72,0,0,1-10.9-2.35,7.72,7.72,0,0,1-4.38-7.15,9.28,9.28,0,0,1,1.6-5A14.52,14.52,0,0,1,150.85,90.6Zm16.67-32.48a12.88,12.88,0,0,1-8.23,2.67,13.09,13.09,0,0,1-8.44-2.67,9.56,9.56,0,0,1-3.2-7.69q0-5.13,3.2-7.7A12.59,12.59,0,0,1,159.29,40a12.38,12.38,0,0,1,8.23,2.77c2.24,1.71,3.31,4.28,3.31,7.7A9.31,9.31,0,0,1,167.52,58.12Z"/><path class="cls-1" d="M240.92,65.28v27h16.45v-27Zm16-15.92q-1.28-9.3-6.09-14.75c-4.38-4.91-10.47-7.47-18.37-7.47a25,25,0,0,0-13.14,3.42,21.57,21.57,0,0,0-8.55,9l-1.28-10.79H195.08V92.31h16.35V59.51c0-5.88,1.5-10.37,4.49-13.57A14.36,14.36,0,0,1,227.24,41c4.7,0,8.12,1.5,10.36,4.39s3.32,7.05,3.32,12.5v7.37Z"/><path class="cls-2" d="M277.13,76.71a10.84,10.84,0,0,0-14.74,0,9.12,9.12,0,0,0-2.88,6.84,9.27,9.27,0,0,0,2.88,6.83,11.16,11.16,0,0,0,14.74,0A9.25,9.25,0,0,0,280,83.55,9.1,9.1,0,0,0,277.13,76.71Z"/><path class="cls-1" d="M41.88,141.24V127.56H24.68V107.8H8.23v17.09l16.45,16.35h17.2Zm-33.65,0v25q0,12.49,6.09,17.31c3.95,3.31,9.29,4.91,16,4.91H41.45v-14h-7.9c-3.32,0-5.56-.53-6.84-1.71s-2-3.31-2-6.3V141.24Z"/><path class="cls-1" d="M102.78,138.67a28.34,28.34,0,0,0-11.22-11.21,31.9,31.9,0,0,0-16.45-4.17,33.8,33.8,0,0,0-17.42,4.38,29.71,29.71,0,0,0-11.54,12A36.34,36.34,0,0,0,42,157.16a33.49,33.49,0,0,0,4.27,17.2A29.52,29.52,0,0,0,57.91,185.9a33.92,33.92,0,0,0,17,4.06,31.82,31.82,0,0,0,13.78-2.78,29.91,29.91,0,0,0,10.26-7.8,29.48,29.48,0,0,0,6-10.9H88.25a13.8,13.8,0,0,1-5,5.77,15,15,0,0,1-8.44,2.24,16.49,16.49,0,0,1-11.33-4.16c-3.1-2.89-4.81-6.73-5.23-11.65h48.39c.11-1.17.11-2.24.22-3.2v-3A30.7,30.7,0,0,0,102.78,138.67ZM58.55,150.43c.85-4.7,2.77-8.12,5.87-10.37a17.76,17.76,0,0,1,10.69-3.42,15.37,15.37,0,0,1,10.47,3.74,13.75,13.75,0,0,1,4.59,10.05Z"/><path class="cls-1" d="M169.23,138.67A28.34,28.34,0,0,0,158,127.46a32.28,32.28,0,0,0-16.56-4.17,33.67,33.67,0,0,0-17.31,4.38,28.93,28.93,0,0,0-11.53,12,36.23,36.23,0,0,0-4.17,17.52,34.47,34.47,0,0,0,4.17,17.2,31,31,0,0,0,11.64,11.54A34.63,34.63,0,0,0,141.34,190a31.86,31.86,0,0,0,13.79-2.78,29.77,29.77,0,0,0,10.25-7.8,31.33,31.33,0,0,0,6-10.9H154.7a14.82,14.82,0,0,1-5.13,5.77,14.65,14.65,0,0,1-8.33,2.24,16.29,16.29,0,0,1-11.33-4.16c-3.2-2.89-4.91-6.73-5.23-11.65H173c.11-1.17.21-2.24.21-3.2s.11-2,.11-3A31.7,31.7,0,0,0,169.23,138.67Zm-44.34,11.76c.86-4.7,2.89-8.12,6-10.37a17.45,17.45,0,0,1,10.58-3.42A15.84,15.84,0,0,1,152,140.38c2.78,2.46,4.27,5.77,4.59,10.05Z"/><path class="cls-1" d="M280.87,145.51c-.85-6.2-2.88-11.11-6.19-14.74-4.49-4.92-10.79-7.48-19.13-7.48a27,27,0,0,0-12.71,3.1,23.57,23.57,0,0,0-9.3,8.33c-4.16-7.58-11.11-11.43-20.93-11.43a24.47,24.47,0,0,0-11.76,2.78,22.42,22.42,0,0,0-8.12,7.37l-1.39-8.55H176.81v63.57h16.46v-32.8c0-5.88,1.28-10.36,4.06-13.57a12.86,12.86,0,0,1,10.57-4.91c4.38,0,7.7,1.49,9.83,4.38s3.21,7.05,3.21,12.5v34.4h16.45v-32.8c0-5.88,1.28-10.36,4-13.57a13.3,13.3,0,0,1,10.79-4.91c4.28,0,7.59,1.49,9.62,4.38s3.2,7.05,3.2,12.5v7.37ZM265,161.43v27H281.3v-27Z"/></g></g></svg>