<svg xmlns="http://www.w3.org/2000/svg" xmlns:xlink="http://www.w3.org/1999/xlink" width="247.974" height="163.551" viewBox="0 0 247.974 163.551">
  <defs>
    <linearGradient id="a" x1="277.825" y1="-20.322" x2="-60.861" y2="213.254" gradientUnits="userSpaceOnUse">
      <stop offset="0" stop-color="#fd36c4"/>
      <stop offset="1" stop-color="#28017e"/>
    </linearGradient>
    <linearGradient id="b" x1="247.31" y1="-64.568" x2="-91.376" y2="169.008" xlink:href="#a"/>
    <linearGradient id="c" x1="259.461" y1="-46.95" x2="-79.225" y2="186.626" xlink:href="#a"/>
    <linearGradient id="d" x1="274.427" y1="-25.249" x2="-64.259" y2="208.327" xlink:href="#a"/>
    <linearGradient id="e" x1="285.547" y1="-9.125" x2="-53.139" y2="224.451" xlink:href="#a"/>
    <linearGradient id="f" x1="293.264" y1="2.065" x2="-45.422" y2="235.641" xlink:href="#a"/>
    <linearGradient id="g" x1="303.51" y1="16.922" x2="-35.176" y2="250.498" xlink:href="#a"/>
  </defs>
  <g>
    <path d="M166.19,9.26a72.514,72.514,0,0,1,72.472,75.279c-1.424,38.208-32.991,69.1-71.22,69.742q-.627.011-1.252.011a72.246,72.246,0,0,1-48.839-18.919,21.5,21.5,0,0,0-14.466-5.665,20.679,20.679,0,0,0-9.756,2.44A57.059,57.059,0,1,1,62.865,24.826q1.731-.1,3.441-.1a56.816,56.816,0,0,1,27.283,6.934,19.441,19.441,0,0,0,9.338,2.368,20.933,20.933,0,0,0,14.126-5.582A72.25,72.25,0,0,1,166.19,9.26m0-9.26a81.538,81.538,0,0,0-55.413,21.636,11.747,11.747,0,0,1-7.85,3.132,10.121,10.121,0,0,1-4.9-1.238,66.416,66.416,0,0,0-31.718-8.065c-1.321,0-2.662.039-3.985.117A66.313,66.313,0,1,0,97.485,140.319a11.358,11.358,0,0,1,5.4-1.351,12.215,12.215,0,0,1,8.227,3.246,81.552,81.552,0,0,0,55.079,21.337q.7,0,1.408-.012A81.776,81.776,0,0,0,225.1,25.045,81.115,81.115,0,0,0,166.19,0Z" fill="url(#a)"/>
    <g>
      <path d="M27.655,74.332V68.483H50.568v5.849h-8V95.068H35.656V74.332Z" fill="url(#b)"/>
      <path d="M57.994,68.293h4.93L72.946,78.775,83.008,68.293H87.9V95.068h-6.87V79.611l-8.082,7.938-8.082-7.938V95.068h-6.87Z" fill="url(#c)"/>
      <path d="M109.784,68.483H116.7V89.106h12v5.962H109.784Z" fill="url(#d)"/>
      <path d="M145.337,68.369h5.011l11.961,26.7H155l-1.778-4.025H142.468l-1.738,4.025h-7.313Zm5.779,17.319-3.274-7.558-3.232,7.558Z" fill="url(#e)"/>
      <path d="M169.169,68.483h11.516c5.092,0,8.85,2.734,8.85,7.1a6.074,6.074,0,0,1-2.425,5.051,6.909,6.909,0,0,1,4.768,6.647c0,4.557-3.8,7.785-9.253,7.785H169.169ZM179.6,79.041c2.061,0,3.192-1.025,3.192-2.544s-1.131-2.545-3.192-2.545h-3.637v5.089Zm1.979,10.52c2.223,0,3.435-.911,3.435-2.62,0-1.633-1.293-2.621-3.435-2.621h-5.616v5.241Z" fill="url(#f)"/>
      <path d="M203.832,86.219a5.564,5.564,0,0,0,5.374,3.684c2.425,0,4.2-.911,4.2-2.848,0-1.557-1.334-2.393-3.879-3.039l-3.153-.835c-4.323-1.177-6.829-3.608-6.829-7.558,0-4.709,4.364-7.748,9.577-7.748a11.638,11.638,0,0,1,5.617,1.368,7.3,7.3,0,0,1,3.556,3.835l-5.536,2.545a3.7,3.7,0,0,0-3.556-2.2c-1.495,0-2.747.722-2.747,1.975,0,1.216,1.09,1.937,3.03,2.431l3.071.8c4.849,1.254,7.758,3.874,7.758,8.166,0,5.431-5.131,8.887-11.152,8.887a14.157,14.157,0,0,1-7.032-1.785,8.826,8.826,0,0,1-4.162-4.975Z" fill="url(#g)"/>
    </g>
  </g>
</svg>
