<svg xmlns="http://www.w3.org/2000/svg" viewBox="0 0 426.7 188.11"><defs><style>.cls-1,.cls-2{fill:#fff;}.cls-1{fill-rule:evenodd;}</style></defs><g id="Layer_2" data-name="Layer 2"><g id="Layer_1-2" data-name="Layer 1"><path class="cls-1" d="M421.64,0c-11.94,3.73-26,7.7-31.6,19.87a32.45,32.45,0,0,0-2.73,15.77c.66,8.27,15.36,9.65,23.88,12.75,21.53,7.85,15.43,16.35,12.07,33.92-.33,1.74.61-6.67-3.9-11.4-6.63-6.95-12.75-8-18-11.52-32.2-21.34-6.54-40.07,19.86-44.34C421.34,15,421.64,1.75,421.64,0Z"/><path class="cls-1" d="M218.57,179l-2.8,1.9a16,16,0,0,0,2.45,3.56,12.05,12.05,0,0,0,3.5,2.68,9.52,9.52,0,0,0,4.34,1,9.74,9.74,0,0,0,3.32-.58,9.27,9.27,0,0,0,2.84-1.65,7.63,7.63,0,0,0,2-2.59,7.94,7.94,0,0,0,.73-3.42,7.72,7.72,0,0,0-.7-3.4,8.45,8.45,0,0,0-1.8-2.43,10.6,10.6,0,0,0-2.36-1.66,19,19,0,0,0-2.43-1.07,21.45,21.45,0,0,1-4-1.75,6.18,6.18,0,0,1-2.08-1.9,4.15,4.15,0,0,1-.61-2.2,3.56,3.56,0,0,1,1.07-2.53,4.48,4.48,0,0,1,3.41-1.14,5.8,5.8,0,0,1,2.87.66,6.76,6.76,0,0,1,2,1.69,11.7,11.7,0,0,1,1.36,2.1l3-1.73a11.68,11.68,0,0,0-1.94-2.9,10.07,10.07,0,0,0-3-2.27,9,9,0,0,0-4.1-.88,9.29,9.29,0,0,0-4.32,1,7.42,7.42,0,0,0-3,2.65,7,7,0,0,0-1.07,3.83,6.84,6.84,0,0,0,.76,3.34,7.56,7.56,0,0,0,2,2.28,12.59,12.59,0,0,0,2.51,1.53c.88.39,1.68.72,2.39,1a29.3,29.3,0,0,1,3.11,1.3,6.82,6.82,0,0,1,2.37,1.87,4.89,4.89,0,0,1,.9,3.09,4.17,4.17,0,0,1-1.4,3.25,5.24,5.24,0,0,1-3.7,1.28,6.36,6.36,0,0,1-3.09-.74,8.31,8.31,0,0,1-2.45-2.06,21.08,21.08,0,0,1-2.08-3Zm25.05-16.8H251v25.53h3.5V162.16h7.41v-3.29H243.62v3.29Zm28.26-3.29v19.35a11.28,11.28,0,0,0,.68,4,8.93,8.93,0,0,0,2,3.13,9.16,9.16,0,0,0,3.11,2.05,11.23,11.23,0,0,0,8.07,0,9.26,9.26,0,0,0,3.11-2.05,8.91,8.91,0,0,0,2-3.13,11.05,11.05,0,0,0,.68-4V158.87H288v19.35a6.94,6.94,0,0,1-1.6,4.78,7,7,0,0,1-9.39,0,7,7,0,0,1-1.61-4.78V158.87Zm32.43,0v28.82h3.5V158.87ZM313,187.69h-6.71v-3.5H313a12.48,12.48,0,0,0,4.45-.76,9.8,9.8,0,0,0,3.46-2.18,9.63,9.63,0,0,0,2.22-3.44,13.54,13.54,0,0,0,0-9.06,9.72,9.72,0,0,0-2.22-3.44,10,10,0,0,0-3.46-2.18,12.48,12.48,0,0,0-4.45-.76h-6.71v-3.5H313a15.06,15.06,0,0,1,7.46,1.81,13.17,13.17,0,0,1,5.1,5,16.35,16.35,0,0,1,0,15.11,13.21,13.21,0,0,1-5.1,5,15.06,15.06,0,0,1-7.46,1.81Zm25.79-28.82v28.82h3.5V158.87Zm18.59,14.41a11.78,11.78,0,0,1,1.42-5.8,10.57,10.57,0,0,1,9.49-5.52,10.51,10.51,0,0,1,9.49,5.52,12.5,12.5,0,0,1,0,11.61,11,11,0,0,1-15.09,4,10.75,10.75,0,0,1-3.89-4,11.82,11.82,0,0,1-1.42-5.81Zm-3.7,0a15.49,15.49,0,0,0,1.09,5.85,14.1,14.1,0,0,0,7.72,7.84,15.4,15.4,0,0,0,11.63,0,14.35,14.35,0,0,0,4.63-3.13,14.07,14.07,0,0,0,3.07-4.71,16.3,16.3,0,0,0,0-11.72,14.19,14.19,0,0,0-3.07-4.69,14.51,14.51,0,0,0-4.63-3.13,15.53,15.53,0,0,0-11.63,0,14.15,14.15,0,0,0-7.72,7.82,15.48,15.48,0,0,0-1.09,5.87ZM395.31,179l-2.8,1.9a16,16,0,0,0,2.45,3.56,12.05,12.05,0,0,0,3.5,2.68,9.53,9.53,0,0,0,4.35,1,9.73,9.73,0,0,0,3.31-.58,9,9,0,0,0,2.84-1.65,7.65,7.65,0,0,0,2-2.59,7.93,7.93,0,0,0,.72-3.42,7.58,7.58,0,0,0-.7-3.4,8.42,8.42,0,0,0-1.79-2.43,10.9,10.9,0,0,0-2.37-1.66,19,19,0,0,0-2.43-1.07,21.32,21.32,0,0,1-4-1.75,6,6,0,0,1-2.08-1.9,4.16,4.16,0,0,1-.62-2.2,3.61,3.61,0,0,1,1.07-2.53,4.51,4.51,0,0,1,3.42-1.14,5.76,5.76,0,0,1,2.86.66,6.8,6.8,0,0,1,2,1.69,12.27,12.27,0,0,1,1.36,2.1l3-1.73a11.63,11.63,0,0,0-1.93-2.9,10.11,10.11,0,0,0-3-2.27,9,9,0,0,0-4.1-.88,9.32,9.32,0,0,0-4.32,1,7.4,7.4,0,0,0-3,2.65,7,7,0,0,0-1.07,3.83,6.73,6.73,0,0,0,.76,3.34,7.67,7.67,0,0,0,1.95,2.28,12.66,12.66,0,0,0,2.52,1.53c.87.39,1.67.72,2.38,1a28.45,28.45,0,0,1,3.11,1.3,6.64,6.64,0,0,1,2.37,1.87,4.9,4.9,0,0,1,.91,3.09,4.21,4.21,0,0,1-1.4,3.25,5.27,5.27,0,0,1-3.71,1.28,6.42,6.42,0,0,1-3.09-.74,8.44,8.44,0,0,1-2.45-2.06A21.08,21.08,0,0,1,395.31,179Z"/><path class="cls-1" d="M105.5,164.13l8.33,9.72a40.42,40.42,0,0,1,51.78,0l8.33-9.72a54.79,54.79,0,0,0-68.44,0Z"/><path class="cls-1" d="M254.07,132.53l-9.9-7.77a34.22,34.22,0,0,1-6.4,5.49,19.71,19.71,0,0,1-11.09,3.06,26.83,26.83,0,0,1-9.09-1.57,24.86,24.86,0,0,1-7.74-4.39,22.35,22.35,0,0,1-5.38-6.84,18.34,18.34,0,0,1-1.72-5.16l0-.18V115c-.48-6.21-1.24-12.28.13-18.45a18.08,18.08,0,0,1,1.2-3.87,23.24,23.24,0,0,1,4.47-7,22.29,22.29,0,0,1,7.07-5.09,21.51,21.51,0,0,1,9.14-2,22.7,22.7,0,0,1,9,1.65,18.31,18.31,0,0,1,6.47,4.56l0,0,0,0a20.14,20.14,0,0,1,3.82,6.82,30.67,30.67,0,0,1,1.14,5l.62,3.91-43.63,0a72.38,72.38,0,0,0,.18,10.73h57v-4.71a53.79,53.79,0,0,0-1.86-14,35.56,35.56,0,0,0-6-12.37,31.76,31.76,0,0,0-10.61-8.9c-4.82-2.53-10.45-3.35-15.85-3.35a36.47,36.47,0,0,0-14.61,2.94,34.44,34.44,0,0,0-11.49,8.07,38.58,38.58,0,0,0-7.6,12.24,41.38,41.38,0,0,0-2.75,15.25,44.74,44.74,0,0,0,2.5,15.26,36.63,36.63,0,0,0,7.23,12.22A33.28,33.28,0,0,0,209.77,142a37.71,37.71,0,0,0,15.09,3C236.6,145,246.54,141.11,254.07,132.53Z"/><path class="cls-1" d="M283.15,72.1H271.89v73.31h12.94V107.66a36.65,36.65,0,0,1,1.53-11.16,21.44,21.44,0,0,1,4.25-7.78A16.49,16.49,0,0,1,297,84.23a21.56,21.56,0,0,1,7.9-1.45,18.74,18.74,0,0,1,6.21,1,13.6,13.6,0,0,1,5.24,3.36,16.77,16.77,0,0,1,3.66,6,25.59,25.59,0,0,1,1.35,8.9v43.35h13V98.19a34.79,34.79,0,0,0-2.07-12.63,24.73,24.73,0,0,0-5.58-8.69,21.68,21.68,0,0,0-8.13-5,30,30,0,0,0-9.75-1.62,28.28,28.28,0,0,0-14.37,3.61,24.77,24.77,0,0,0-4,2.8l-3.11,2.74Z"/><path class="cls-1" d="M16.39,52.12a9.71,9.71,0,0,0,2.84-7A9.84,9.84,0,0,0,16.39,38,9,9,0,0,0,9.6,35a9,9,0,0,0-6.76,3A9.84,9.84,0,0,0,0,45.08a9.71,9.71,0,0,0,2.84,7,9,9,0,0,0,6.76,3A9,9,0,0,0,16.39,52.12Z"/><rect class="cls-2" x="3.16" y="72.03" width="12.94" height="73.31"/><path class="cls-1" d="M39.18,72H27.92v73.31H40.86V107.54a36.6,36.6,0,0,1,1.53-11.16,21.56,21.56,0,0,1,4.25-7.79A16.47,16.47,0,0,1,53,84.11a21.35,21.35,0,0,1,7.9-1.45,18.49,18.49,0,0,1,6.21,1,13.37,13.37,0,0,1,5.24,3.36A16.77,16.77,0,0,1,76,93a25.54,25.54,0,0,1,1.35,8.89v43.36h13V98.07a34.84,34.84,0,0,0-2.07-12.64,24.73,24.73,0,0,0-5.58-8.69,21.78,21.78,0,0,0-8.13-5,29.69,29.69,0,0,0-9.75-1.63,28.28,28.28,0,0,0-14.37,3.61,26.11,26.11,0,0,0-3.95,2.8l-3.11,2.74Z"/><path class="cls-1" d="M181.34,81V68.78H148.12l-.35-.07a39,39,0,0,0-8.05-.85,36.1,36.1,0,0,0-14.75,3,37.22,37.22,0,0,0-11.92,8.23,40.1,40.1,0,0,0-8,12.27,40.1,40.1,0,0,0,0,30.07,38.46,38.46,0,0,0,8,12.23A37.72,37.72,0,0,0,125,141.9a37.51,37.51,0,0,0,29.49,0,37.9,37.9,0,0,0,11.92-8.22,38.6,38.6,0,0,0,8-12.23,39.32,39.32,0,0,0,2.89-15.08,38.41,38.41,0,0,0-2.88-15,43.21,43.21,0,0,0-2.68-5.25L168.56,81ZM139.6,131.74c-13.71,0-23.83-11.91-23.83-25.27S125.89,81.2,139.6,81.2s23.84,11.92,23.84,25.27S153.31,131.74,139.6,131.74Z"/><path class="cls-1" d="M407,132.38l-9.9-7.77a34.86,34.86,0,0,1-6.39,5.49,19.74,19.74,0,0,1-11.1,3.06,27,27,0,0,1-9.08-1.57,24.74,24.74,0,0,1-7.75-4.4,22.31,22.31,0,0,1-5.37-6.83,18.79,18.79,0,0,1-1.73-5.16l0-.18,0-.19c-.48-6.2-1.23-12.27.14-18.45a17.61,17.61,0,0,1,1.2-3.86,23.11,23.11,0,0,1,4.47-7,22.47,22.47,0,0,1,7.07-5.1,21.58,21.58,0,0,1,9.13-2,22.61,22.61,0,0,1,9.05,1.66,18.15,18.15,0,0,1,6.46,4.56l0,0,0,0A20.31,20.31,0,0,1,397,91.53a30.79,30.79,0,0,1,1.14,5l.61,3.92-43.63-.06a73.88,73.88,0,0,0,.18,10.74h57v-4.71a53.72,53.72,0,0,0-1.85-14.05,35.87,35.87,0,0,0-6-12.38,31.73,31.73,0,0,0-10.61-8.89C389,68.58,383.34,67.75,378,67.75a36.31,36.31,0,0,0-14.61,3,34.43,34.43,0,0,0-11.5,8.07A38.62,38.62,0,0,0,344.25,91a41.38,41.38,0,0,0-2.75,15.25,44.74,44.74,0,0,0,2.5,15.26,36.42,36.42,0,0,0,7.23,12.21,33.36,33.36,0,0,0,11.46,8.13,37.79,37.79,0,0,0,15.1,2.95C389.53,144.81,399.47,141,407,132.38Z"/></g></g></svg>