<svg width="248" height="164" viewBox="0 0 248 164" fill="none" xmlns="http://www.w3.org/2000/svg">
<g clip-path="url(#clip0_195_12)">
<path d="M166.191 9.26004C175.947 9.2586 185.603 11.226 194.581 15.0443C203.56 18.8627 211.675 24.4535 218.441 31.4821C225.208 38.5107 230.486 46.8324 233.961 55.9491C237.436 65.0657 239.035 74.7898 238.663 84.539C237.239 122.747 205.672 153.639 167.443 154.281C167.025 154.288 166.607 154.292 166.191 154.292C148.118 154.316 130.692 147.566 117.352 135.373C113.404 131.748 108.245 129.727 102.886 129.708C99.4824 129.706 96.1313 130.544 93.1297 132.148C85.6058 136.153 77.2803 138.422 68.7647 138.787C60.2492 139.152 51.7599 137.605 43.9206 134.26C36.0814 130.914 29.0912 125.854 23.4638 119.453C17.8364 113.051 13.7146 105.47 11.4013 97.2667C9.08794 89.0633 8.64186 80.4457 10.0958 72.0473C11.5497 63.6488 14.8667 55.6827 19.8031 48.7343C24.7395 41.7859 31.1699 36.0317 38.6218 31.8944C46.0737 27.7571 54.3579 25.3418 62.8657 24.826C64.0197 24.7594 65.1667 24.726 66.3067 24.726C75.8387 24.7121 85.221 27.0967 93.5897 31.66C96.4544 33.2203 99.6656 34.0346 102.928 34.028C108.169 34.0015 113.21 32.0096 117.054 28.446C130.429 16.0864 147.979 9.23395 166.191 9.26004ZM166.191 4.3876e-05C145.654 -0.0236074 125.865 7.70308 110.778 21.636C108.64 23.6178 105.842 24.7341 102.928 24.768C101.216 24.7764 99.53 24.3504 98.0277 23.53C88.2932 18.2381 77.3895 15.4656 66.3097 15.465C64.9887 15.465 63.6477 15.504 62.3247 15.582C52.4383 16.1824 42.8119 18.9898 34.1527 23.798C25.4934 28.6061 18.0212 35.293 12.2849 43.3674C6.54856 51.4418 2.6938 60.6986 1.00375 70.4579C-0.686297 80.2173 -0.168712 90.2313 2.51849 99.7644C5.20569 109.297 9.99426 118.108 16.5325 125.548C23.0707 132.987 31.1925 138.868 40.3013 142.758C49.4101 146.648 59.2746 148.448 69.1702 148.026C79.0658 147.604 88.7412 144.97 97.4857 140.319C99.1457 139.428 101.001 138.964 102.886 138.968C105.937 138.984 108.872 140.142 111.113 142.214C126.161 155.959 145.811 163.571 166.192 163.551C166.658 163.551 167.128 163.547 167.6 163.539C183.522 163.267 199.018 158.352 212.186 149.398C225.354 140.443 235.621 127.839 241.727 113.132C247.834 98.4251 249.513 82.2553 246.559 66.6074C243.606 50.9594 236.148 36.5143 225.101 25.045C217.494 17.0926 208.348 10.7713 198.221 6.46563C188.093 2.16001 177.195 -0.0398168 166.191 4.3876e-05Z" fill="white"/>
<path d="M27.6562 74.3319V68.4829H50.5693V74.3319H42.5693V95.0679H35.6572V74.3319H27.6562Z" fill="white"/>
<path d="M57.9961 68.293H62.9261L72.9481 78.775L83.0101 68.293H87.9021V95.068H81.0321V79.611L72.9501 87.549L64.8681 79.611V95.068H57.9981L57.9961 68.293Z" fill="white"/>
<path d="M109.785 68.4829H116.701V89.1059H128.701V95.0679H109.785V68.4829Z" fill="white"/>
<path d="M145.338 68.3687H150.349L162.31 95.0686H155.001L153.223 91.0436H142.469L140.731 95.0686H133.418L145.338 68.3687ZM151.117 85.6877L147.843 78.1296L144.611 85.6877H151.117Z" fill="white"/>
<path d="M169.17 68.4829H180.686C185.778 68.4829 189.536 71.2169 189.536 75.5829C189.567 76.5577 189.363 77.5255 188.941 78.4047C188.519 79.2839 187.891 80.0485 187.111 80.6339C188.51 81.0898 189.727 81.9803 190.584 83.1759C191.442 84.3715 191.896 85.8096 191.879 87.2809C191.879 91.8379 188.079 95.0659 182.626 95.0659H169.17V68.4829ZM179.601 79.0409C181.662 79.0409 182.793 78.0159 182.793 76.4969C182.793 74.9779 181.662 73.9519 179.601 73.9519H175.964V79.0409H179.601ZM181.58 89.5609C183.803 89.5609 185.015 88.6499 185.015 86.9409C185.015 85.3079 183.722 84.3199 181.58 84.3199H175.964V89.5609H181.58Z" fill="white"/>
<path d="M203.834 86.2189C204.229 87.3199 204.96 88.2684 205.925 88.9298C206.89 89.5911 208.038 89.9316 209.208 89.9029C211.633 89.9029 213.408 88.9919 213.408 87.0549C213.408 85.4979 212.074 84.6619 209.529 84.0159L206.376 83.1809C202.053 82.0039 199.547 79.5729 199.547 75.6229C199.547 70.9139 203.911 67.8749 209.124 67.8749C211.081 67.8512 213.013 68.3217 214.741 69.2429C216.359 70.0382 217.626 71.4042 218.297 73.0779L212.761 75.6229C212.459 74.9403 211.958 74.365 211.323 73.9724C210.689 73.5797 209.95 73.3882 209.205 73.4229C207.71 73.4229 206.458 74.1449 206.458 75.3979C206.458 76.6139 207.548 77.3349 209.488 77.8289L212.559 78.6289C217.408 79.8829 220.317 82.5029 220.317 86.7949C220.317 92.2259 215.186 95.6819 209.165 95.6819C206.705 95.7078 204.282 95.0926 202.133 93.8969C200.164 92.8269 198.676 91.0484 197.971 88.9219L203.834 86.2189Z" fill="white"/>
</g>
<defs>
<clipPath id="clip0_195_12">
<rect width="247.974" height="163.551" fill="white"/>
</clipPath>
</defs>
</svg>
