<svg width="147" height="59" viewBox="0 0 147 59" fill="none" xmlns="http://www.w3.org/2000/svg">
<g clip-path="url(#clip0_445_2)">
<path d="M146.187 15.0645V17.6671H142.658V26.7101H139.923V17.6671H136.394V15.0645H146.209H146.187ZM111.361 23.9531C110.809 23.0267 110.522 21.9901 110.522 20.8873C110.522 19.7845 110.809 18.7478 111.361 17.8215C111.912 16.8951 112.662 16.1673 113.61 15.6159C114.559 15.0865 115.617 14.7998 116.764 14.7998C117.911 14.7998 118.97 15.0645 119.918 15.6159C120.867 16.1452 121.617 16.8951 122.168 17.8215C122.72 18.7478 123.006 19.7845 123.006 20.8873C123.006 21.9901 122.72 23.0267 122.168 23.9531C121.617 24.8794 120.867 25.6073 119.918 26.1587C118.97 26.688 117.911 26.9748 116.764 26.9748C115.617 26.9748 114.559 26.7101 113.61 26.1587C112.662 25.6293 111.912 24.8794 111.361 23.9531ZM113.302 20.8873C113.302 21.5269 113.456 22.1004 113.765 22.6297C114.074 23.1591 114.493 23.5781 115.022 23.8869C115.551 24.1957 116.147 24.3501 116.786 24.3501C117.426 24.3501 118.022 24.1957 118.551 23.8869C119.08 23.5781 119.499 23.1591 119.808 22.6297C120.117 22.1004 120.271 21.5269 120.271 20.8873C120.271 20.2477 120.117 19.6742 119.808 19.1449C119.499 18.6155 119.08 18.1964 118.551 17.8877C118.022 17.5789 117.426 17.4245 116.786 17.4245C116.147 17.4245 115.551 17.5789 115.022 17.8877C114.493 18.1964 114.074 18.6155 113.765 19.1449C113.456 19.6742 113.302 20.2477 113.302 20.8873ZM107.699 42.7228H110.434V31.0992H107.699V42.7228ZM119.191 31.0992L123.756 42.7228H120.845L120.117 40.7819H115.088L114.36 42.7228H111.449L116.037 31.0992H119.191ZM119.146 38.1792L117.625 34.165L116.103 38.1792H119.168H119.146ZM132.667 21.7916C132.667 22.2768 132.557 22.6959 132.336 23.0929C132.115 23.4899 131.807 23.7987 131.41 24.0192C131.013 24.2398 130.571 24.3501 130.108 24.3501C129.645 24.3501 129.204 24.2398 128.807 24.0192C128.41 23.7987 128.101 23.4899 127.881 23.0929C127.66 22.6959 127.55 22.2548 127.55 21.7916V15.0645H124.793V21.7034C124.793 22.6738 125.035 23.5561 125.499 24.3501C125.962 25.1441 126.601 25.7837 127.417 26.2469C128.234 26.7101 129.138 26.9527 130.108 26.9527C131.079 26.9527 132.005 26.7101 132.799 26.2469C133.615 25.7837 134.255 25.1441 134.718 24.3501C135.181 23.5561 135.424 22.6738 135.424 21.7034V15.0645H132.667V21.7916ZM75.0784 39.26L72.0567 31.0772H68.3072V42.7007H71.0421V35.5325L73.8432 42.7007H76.3797L79.1808 35.4884V42.7007H81.9158V31.0772H78.1662L75.1225 39.26H75.0784ZM70.5569 26.7101H73.2918V17.6671H76.8208V15.0645H67.0059V17.6671H70.5348V26.7101H70.5569ZM75.8283 26.7101L80.416 15.0865H83.57L88.1356 26.7101H85.2242L84.4963 24.7691H79.4675L78.7397 26.7101H75.8283ZM80.4601 22.1665H83.5259L82.004 18.1523L80.4821 22.1665H80.4601ZM86.9887 38.0028H92.4806V35.4663H86.9887V33.6136H92.6791V31.0772H84.2758V42.7007H92.8115V40.032H86.9887V37.9807V38.0028ZM91.8851 20.9093H91.9954L96.5169 26.7101H99.8474L94.9509 20.402L99.4945 15.0645H96.2081L91.9292 20.0271V15.0645H89.1943V26.688H91.9292V20.8873L91.8851 20.9093ZM105.163 33.9665C105.692 34.8488 105.957 35.8413 105.957 36.922C105.957 38.0028 105.692 38.9733 105.163 39.8555C104.634 40.7377 103.906 41.4435 103.001 41.9729C102.097 42.4802 101.082 42.7448 100.002 42.7448H94.576V31.1213H99.9356C101.038 31.1213 102.031 31.386 102.957 31.8933C103.884 32.4006 104.611 33.1063 105.141 33.9886L105.163 33.9665ZM103.222 36.9C103.222 36.3045 103.09 35.7531 102.803 35.2678C102.516 34.7826 102.141 34.3856 101.634 34.0989C101.149 33.8121 100.597 33.6798 100.002 33.6798H97.333V40.1202H100.002C100.597 40.1202 101.149 39.9878 101.634 39.7011C102.119 39.4144 102.516 39.0394 102.803 38.5321C103.09 38.0469 103.222 37.4955 103.222 36.9ZM109.42 24.0413H103.597V21.9901H109.089V19.4536H103.597V17.6009H109.287V15.0645H100.884V26.688H109.42V24.0192V24.0413Z" fill="white"/>
<path d="M50.3761 8.64598C44.8179 3.06579 37.385 0 29.511 0C21.637 0 14.2041 3.06579 8.64598 8.64598C3.06579 14.2041 0 21.637 0 29.511C0 37.385 3.06579 44.7959 8.64598 50.3761C14.2041 55.9563 21.637 59.0221 29.511 59.0221C37.385 59.0221 44.7959 55.9563 50.3761 50.3761C55.9563 44.8179 59.0221 37.385 59.0221 29.511C59.0221 21.637 55.9563 14.2262 50.3761 8.64598ZM27.1069 54.4123L25.8938 45.1708L28.5847 44.8179L27.9671 54.4785C27.6804 54.4785 27.3936 54.4344 27.1069 54.4123ZM40.495 40.7596L37.2307 41.1787L35.775 50.2658L32.0475 41.8404L28.7832 42.2594L19.277 43.4946L19.6079 45.9869L23.1809 45.5237L24.2837 53.9492C19.6299 52.9566 15.351 50.6407 11.8882 47.1779C7.16822 42.4579 4.56561 36.172 4.56561 29.511C4.56561 22.8501 7.16822 16.5641 11.8882 11.8441C16.6082 7.12411 22.8942 4.5215 29.5551 4.5215C36.2381 4.5215 42.5021 7.12411 47.2221 11.8441C51.9421 16.5641 54.5447 22.8501 54.5447 29.511C54.5447 36.172 51.9421 42.4579 47.2221 47.1779C46.0972 48.3028 44.9062 49.2953 43.6269 50.1555L40.517 40.7155L40.495 40.7596ZM41.0243 51.7656C39.9436 52.317 38.8407 52.8022 37.6938 53.1993L38.929 44.9062L41.0243 51.7656ZM34.8045 53.9933C33.5473 54.2579 32.268 54.4344 30.9888 54.5006L31.3417 45.8766L34.8045 53.9933Z" fill="white"/>
</g>
<defs>
<clipPath id="clip0_445_2">
<rect width="146.188" height="59" fill="white"/>
</clipPath>
</defs>
</svg>
